<svg width="32" height="32" viewBox="0 0 32 32" fill="none" xmlns="http://www.w3.org/2000/svg">
  <!-- Background Circle -->
  <circle cx="16" cy="16" r="16" fill="#1e40af"/>
  
  <!-- Greek Letter Φ (Phi) -->
  <path d="M16 6C12.5 6 9.5 8.5 9.5 12V20C9.5 23.5 12.5 26 16 26C19.5 26 22.5 23.5 22.5 20V12C22.5 8.5 19.5 6 16 6ZM16 8C18.5 8 20.5 10 20.5 12.5V19.5C20.5 22 18.5 24 16 24C13.5 24 11.5 22 11.5 19.5V12.5C11.5 10 13.5 8 16 8Z" fill="white"/>
  
  <!-- Horizontal line through Phi -->
  <rect x="10" y="15" width="12" height="2" fill="white"/>
  
  <!-- Decorative elements - Books/Education theme -->
  <circle cx="8" cy="8" r="1.5" fill="#3b82f6" opacity="0.7"/>
  <circle cx="24" cy="8" r="1.5" fill="#3b82f6" opacity="0.7"/>
  <circle cx="8" cy="24" r="1.5" fill="#3b82f6" opacity="0.7"/>
  <circle cx="24" cy="24" r="1.5" fill="#3b82f6" opacity="0.7"/>
  
  <!-- Small decorative dots -->
  <circle cx="12" cy="12" r="0.5" fill="white" opacity="0.6"/>
  <circle cx="20" cy="12" r="0.5" fill="white" opacity="0.6"/>
  <circle cx="12" cy="20" r="0.5" fill="white" opacity="0.6"/>
  <circle cx="20" cy="20" r="0.5" fill="white" opacity="0.6"/>
</svg>

